# Blender v2.82 (sub 7) OBJ File: ''
# www.blender.org
mtllib pyramid-test4.mtl
o Pyramid.001
v 0.000000 0.000000 -60.000000
v 45.000000 -30.000000 60.000000
v -45.000000 -30.000000 60.000000
v -45.000000 30.000000 60.000000
v 45.000000 30.000000 60.000000
vt 0.375000 0.500000
vt 0.875000 0.500000
vt 0.875000 0.750000
vt 0.375000 0.750000
vt 0.625000 1.000000
vt 0.375000 1.000000
vt 0.625000 0.000000
vt 0.375000 0.250000
vt 0.375000 0.000000
vt 0.125000 0.500000
vt 0.125000 0.750000
vt 0.625000 0.250000
vn 0.0000 -0.9701 -0.2425
vn -0.9363 0.0000 -0.3511
vn 0.0000 0.0000 1.0000
vn 0.0000 0.9701 -0.2425
vn 0.0000 0.0000 1.0000
vn 0.9363 -0.0000 -0.3511
g group0
usemtl Blue
s 1
f 1/1/1 2/2/1 3/3/1
f 1/4/2 3/5/2 4/6/2
f 3/7/3 5/8/3 4/9/3
f 5/10/4 1/4/4 4/11/4
f 3/7/5 2/12/5 5/8/5
f 5/8/6 2/12/6 1/1/6
