ply
format ascii 1.0
comment Created by Blender 2.90.1 - www.blender.org
element vertex 22
property float x
property float y
property float z
element face 21
property list uchar uint vertex_indices
end_header
1.000000 -0.658417 1.309092
-0.007176 -1.000000 1.995514
-0.007176 -1.000000 -2.023557
1.000000 -0.658417 -1.337135
1.000000 0.658417 -1.337135
1.000000 0.658417 1.309092
-0.007176 1.000000 -2.023557
-0.007176 1.000000 1.995514
-5.837359 0.006845 0.007176
-5.837359 0.021198 0.007176
-5.837359 0.021198 -0.007176
-5.837359 0.006845 -0.007176
-0.007176 1.000000 1.995514
-5.837359 0.021198 -0.007176
-5.837359 0.021198 0.007176
-0.007176 1.000000 -2.023557
-3.577408 0.400610 -0.009555
-0.734509 0.877892 0.966992
-0.736862 0.864656 0.966992
-3.615488 1.017573 -0.009555
-0.734509 0.877892 -0.992777
-0.736862 0.864656 -0.992777
4 0 1 2 3
4 3 4 5 0
4 2 6 4 3
4 7 5 4 6
4 8 9 10 11
4 9 8 1 7
4 6 2 11 10
3 12 13 14
4 2 1 8 11
4 0 5 7 1
4 12 14 9 7
4 13 15 6 10
4 15 12 7 6
4 14 13 10 9
4 16 17 18 19
4 16 20 15 13
4 20 17 12 15
4 17 16 13 12
3 18 21 19
4 17 20 21 18
4 20 16 19 21
